<?xml version="1.0" encoding="utf-8"?>
<!-- Generator: Adobe Illustrator 24.1.2, SVG Export Plug-In . SVG Version: 6.00 Build 0)  -->
<svg version="1.1" id="Layer_1" xmlns="http://www.w3.org/2000/svg" xmlns:xlink="http://www.w3.org/1999/xlink" x="0px" y="0px"
	 viewBox="0 0 1920 1080" style="enable-background:new 0 0 1920 1080;" xml:space="preserve">
<style type="text/css">
	.st0{fill:#808080;}
	.st1{fill:#004582;}
	.st2{fill:#00A99D;}
	.st3{opacity:0.05;clip-path:url(#SVGID_2_);fill:#FFFFFF;}
</style>
<g>
	<g>
		<path class="st0" d="M457.23,826.05h-4.98v-21.36h-0.07l-4.77,21.36h-5.23l-4.66-21.36h-0.07v21.36h-4.98v-25.56h7.8l4.63,20.15
			h0.07l4.56-20.15h7.73V826.05z"/>
		<path class="st0" d="M489.48,826.05h-5.62l9.11-25.56h6.16l9.01,25.56h-5.8l-1.64-5.27h-9.43L489.48,826.05z M492.69,816.36h6.51
			l-3.17-10.11h-0.07L492.69,816.36z"/>
		<path class="st0" d="M550.64,800.49h4.98v25.56h-5.34l-10.43-18.23h-0.07v18.23h-4.98v-25.56h5.62l10.15,17.8h0.07V800.49z"/>
		<path class="st0" d="M604.71,817.11c0,6.73-4.06,9.61-10.5,9.61c-2.35,0-5.84-0.57-8.12-3.1c-1.39-1.57-1.92-3.63-1.99-6.19
			v-16.95h5.45v16.59c0,3.56,2.06,5.13,4.56,5.13c3.67,0,5.16-1.78,5.16-4.88v-16.84h5.45V817.11z"/>
		<path class="st0" d="M638.78,826.05h-5.34v-25.56h18.19v4.52h-12.85v5.77h11.25v4.52h-11.25V826.05z"/>
		<path class="st0" d="M679.47,826.05h-5.62l9.11-25.56h6.16l9.01,25.56h-5.8l-1.64-5.27h-9.43L679.47,826.05z M682.67,816.36h6.52
			l-3.17-10.11h-0.07L682.67,816.36z"/>
		<path class="st0" d="M739.91,808.85c-0.43-1.53-1.25-4.41-5.66-4.41c-2.56,0-6.34,1.71-6.34,8.93c0,4.59,1.81,8.72,6.34,8.72
			c2.96,0,5.02-1.67,5.66-4.81h5.34c-1.07,5.55-4.7,9.43-11.11,9.43c-6.8,0-11.68-4.59-11.68-13.42c0-8.94,5.16-13.49,11.75-13.49
			c7.65,0,10.75,5.27,11.04,9.04H739.91z"/>
		<path class="st0" d="M783.66,826.05h-5.34v-21.04h-7.72v-4.52h20.79v4.52h-7.72V826.05z"/>
		<path class="st0" d="M838.52,817.11c0,6.73-4.06,9.61-10.5,9.61c-2.35,0-5.84-0.57-8.12-3.1c-1.39-1.57-1.92-3.63-1.99-6.19
			v-16.95h5.45v16.59c0,3.56,2.07,5.13,4.56,5.13c3.67,0,5.16-1.78,5.16-4.88v-16.84h5.45V817.11z"/>
		<path class="st0" d="M867.25,800.49h12.92c6.8,0,8.05,5.02,8.05,7.23c0,2.81-1.42,5.23-3.95,6.09c2.1,0.93,3.24,1.71,3.24,6.48
			c0,3.74,0,4.66,1.14,5.09v0.68h-5.91c-0.35-1.21-0.57-2.53-0.57-5.16c0-3.49-0.21-4.84-4.16-4.84h-5.52v10h-5.23V800.49z
			 M878.74,811.73c2.78,0,4.13-0.96,4.13-3.49c0-1.35-0.6-3.35-3.74-3.35h-6.66v6.84H878.74z"/>
		<path class="st0" d="M921.35,826.05h-5.34v-25.56h5.34V826.05z"/>
		<path class="st0" d="M965.42,800.49h4.98v25.56h-5.34l-10.43-18.23h-0.07v18.23h-4.98v-25.56h5.63l10.14,17.8h0.07V800.49z"/>
		<path class="st0" d="M1011.03,812.27h10.68v13.78h-3.56l-0.53-3.2c-1.35,1.57-3.31,3.88-7.97,3.88c-6.16,0-11.75-4.41-11.75-13.39
			c0-6.94,3.84-13.53,12.43-13.53h0.07c7.83,0,10.93,5.09,11.21,8.62h-5.34c0-1-1.81-4.2-5.59-4.2c-3.81,0-7.33,2.64-7.33,9.19
			c0,6.98,3.81,8.79,7.44,8.79c1.17,0,5.09-0.46,6.19-5.62h-5.94V812.27z"/>
		<path class="st0" d="M1108.14,826.05h-4.98v-21.36h-0.07l-4.77,21.36h-5.23l-4.66-21.36h-0.07v21.36h-4.98v-25.56h7.8l4.63,20.15
			h0.07l4.56-20.15h7.73V826.05z"/>
		<path class="st0" d="M1140.39,826.05h-5.62l9.11-25.56h6.16l9.01,25.56h-5.8l-1.64-5.27h-9.43L1140.39,826.05z M1143.59,816.36
			h6.52l-3.17-10.11h-0.07L1143.59,816.36z"/>
		<path class="st0" d="M1185.95,800.49h11.29c8.61,0,10.4,7.33,10.4,12.18c0,5.48-2.17,13.39-10.61,13.39h-11.07V800.49z
			 M1191.18,821.63h5.2c4.34,0,5.8-4.38,5.8-8.58c0-7.55-3.6-8.15-5.87-8.15h-5.13V821.63z"/>
		<path class="st0" d="M1253.94,805.01h-13.56v5.37h12.46v4.52h-12.46v6.62h14.17v4.52h-19.4v-25.56h18.8V805.01z"/>
		<path class="st0" d="M1334.57,805.01h-13.56v5.37h12.46v4.52h-12.46v6.62h14.17v4.52h-19.4v-25.56h18.8V805.01z"/>
		<path class="st0" d="M1366.64,826.05h-5.62l9.11-25.56h6.16l9.01,25.56h-5.8l-1.64-5.27h-9.43L1366.64,826.05z M1369.85,816.36
			h6.52l-3.17-10.11h-0.07L1369.85,816.36z"/>
		<path class="st0" d="M1415.13,818.18c0.03,1.42,0.75,4.13,5.41,4.13c2.53,0,5.34-0.6,5.34-3.31c0-1.99-1.92-2.53-4.63-3.17
			l-2.74-0.64c-4.13-0.96-8.12-1.89-8.12-7.51c0-2.85,1.53-7.87,9.83-7.87c7.83,0,9.93,5.13,9.97,8.26h-5.13
			c-0.14-1.14-0.57-3.84-5.23-3.84c-2.03,0-4.45,0.75-4.45,3.06c0,1.99,1.64,2.42,2.71,2.67l6.23,1.53
			c3.49,0.85,6.69,2.28,6.69,6.87c0,7.69-7.83,8.37-10.07,8.37c-9.33,0-10.93-5.37-10.93-8.54H1415.13z"/>
		<path class="st0" d="M1468.77,826.05h-5.34v-9.65l-8.83-15.91h6.3l5.3,11.11l5.06-11.11h6.05l-8.54,15.98V826.05z"/>
	</g>
	<g>
		<g>
			<path class="st1" d="M797.65,382.6h227.74c4.03,0,8.11-0.74,12.27-2.21c4.16-1.47,7.98-3.48,11.47-6.04
				c3.48-2.54,6.37-5.63,8.65-9.25c2.28-3.62,3.42-7.44,3.42-11.47s-1.14-7.78-3.42-11.27c-2.28-3.48-5.17-6.57-8.65-9.25
				c-3.49-2.68-7.31-4.76-11.47-6.24c-4.16-1.47-8.25-2.21-12.27-2.21H797.65v-65.59h261.14c13.14,0,24.68,2.41,34.6,7.24
				c9.92,4.83,18.17,11.27,24.75,19.31c6.57,8.05,11.67,17.5,15.29,28.37c3.62,10.86,5.83,22.33,6.64,34.4v10.46
				c-0.8,12.07-2.89,23.54-6.24,34.4c-3.36,10.86-8.32,20.32-14.89,28.37c-6.58,8.05-14.82,14.48-24.75,19.31
				c-9.93,4.83-21.73,7.24-35.41,7.24H876.51v65.99h-78.86V382.6z"/>
			<path class="st1" d="M1484.57,369.41c-3.62-9.25-8.79-17.5-15.49-24.75c-6.71-7.24-14.82-13.14-24.34-17.7
				c-9.52-4.56-20.32-6.84-32.39-6.84h-164.17c-5.63,0-10.06-1.34-13.28-4.02c-3.22-2.68-4.83-5.9-4.83-9.66
				c0-4.83,1.61-8.65,4.83-11.47c3.22-2.82,7.64-4.23,13.28-4.23h127.55c6.17,0,12.07,0.8,17.71,2.41c5.63,1.61,8.45,4.3,8.45,8.05
				h86.11c-1.61-10.72-4.29-20.72-8.05-29.98c-3.76-9.25-8.85-17.3-15.29-24.14s-14.35-12.2-23.74-16.09
				c-9.39-3.89-20.39-5.84-32.99-5.84h-31.43h-0.76h-150.89c-10.46,0-20.39,2.01-29.77,6.04c-9.39,4.02-17.64,9.66-24.75,16.9
				c-7.11,7.24-12.74,15.96-16.9,26.15c-4.16,10.2-6.24,21.33-6.24,33.4c0,9.66,1.81,19.05,5.43,28.17
				c3.62,9.12,8.78,17.24,15.49,24.34c6.7,7.11,14.89,12.88,24.55,17.3c9.66,4.43,20.38,6.64,32.19,6.64h164.17
				c5.63,0,10.06,1.55,13.28,4.63c3.22,3.09,4.83,6.51,4.83,10.26c0,4.83-1.61,8.65-4.83,11.47c-3.22,2.82-7.64,4.23-13.28,4.23
				h-127.55c-2.96,0-5.97-0.13-9.05-0.4c-3.09-0.26-5.9-0.8-8.45-1.61c-2.55-0.8-4.7-1.87-6.44-3.22c-1.75-1.34-2.62-3.08-2.62-5.23
				h-85.7c1.61,10.73,4.29,20.72,8.05,29.98c3.75,9.25,8.85,17.3,15.29,24.14c6.44,6.84,14.35,12.21,23.74,16.09
				c9.39,3.89,20.38,5.84,32.99,5.84h31.58h0.61h150.89c10.46,0,20.38-2.01,29.77-6.04c9.39-4.02,17.64-9.66,24.75-16.9
				c7.1-7.24,12.74-15.96,16.9-26.15c4.15-10.19,6.24-21.33,6.24-33.4C1490,388.12,1488.19,378.66,1484.57,369.41z"/>
			<path class="st2" d="M701.6,393.95c-2.15,4.16-5.03,7.78-8.65,10.86c-3.62,3.09-7.64,5.5-12.07,7.24
				c-4.43,1.75-8.79,2.62-13.08,2.62H545.48c-4.57,0-8.99-0.87-13.28-2.62c-4.29-1.74-8.19-4.15-11.67-7.24
				c-3.49-3.08-6.31-6.7-8.45-10.86c-2.15-4.16-3.22-8.65-3.22-13.48H430c0,13.15,1.47,25.75,4.43,37.82
				c2.95,12.07,7.71,22.67,14.28,31.79c6.57,9.12,15.02,16.43,25.35,21.93c10.32,5.5,22.87,8.25,37.62,8.25H702
				c14.75,0,27.29-2.75,37.62-8.25c10.32-5.49,18.77-12.81,25.35-21.93c6.57-9.12,11.33-19.72,14.28-31.79
				c2.95-12.07,4.43-24.68,4.43-37.82h-78.86C704.82,385.3,703.74,389.8,701.6,393.95z"/>
			<path class="st1" d="M512.08,311.47c2.14-4.16,4.96-7.78,8.45-10.86c3.48-3.08,7.37-5.5,11.67-7.24
				c4.29-1.74,8.71-2.62,13.28-2.62H667.8c4.29,0,8.65,0.87,13.08,2.62c4.43,1.75,8.45,4.16,12.07,7.24
				c3.62,3.09,6.5,6.71,8.65,10.86c2.14,4.16,3.22,8.65,3.22,13.48h78.86c0-13.14-1.48-25.75-4.43-37.82
				c-2.95-12.07-7.71-22.66-14.28-31.79c-6.58-9.12-15.03-16.43-25.35-21.93c-10.33-5.5-22.87-8.25-37.62-8.25H511.68
				c-14.76,0-27.3,2.75-37.62,8.25c-10.33,5.5-18.78,12.81-25.35,21.93c-6.58,9.12-11.34,19.72-14.28,31.79
				c-2.95,12.07-4.43,24.68-4.43,37.82h78.86C508.86,320.12,509.93,315.63,512.08,311.47z"/>
		</g>
		<g>
			<g>
				<path class="st1" d="M695.31,574v63.02h-14.59v-38.26l-12.68,30.26h-9.91l-12.7-30.26v38.26h-14.22V574h16.66l15.53,35.13
					L678.8,574H695.31z"/>
				<path class="st1" d="M784.38,623.7h-20.55l-3.66,13.32h-15.43L763.45,574h20.92l19.25,63.02h-15.15L784.38,623.7z
					 M780.48,611.01l-6.57-24.67l-6.66,24.67H780.48z"/>
				<path class="st1" d="M853.04,574h43.4v12.96h-28.45v11.43h22.78v12.78h-22.78v12.87h28.45v12.96h-43.4V574z"/>
				<path class="st1" d="M977.83,593.99v-5.67c0-0.66-0.12-1.11-0.36-1.35c-0.24-0.24-0.69-0.36-1.35-0.36h-12.96
					c-0.66,0-1.11,0.12-1.35,0.37c-0.24,0.24-0.36,0.7-0.36,1.37v5.94c0,0.73,0.16,1.25,0.49,1.55c0.33,0.3,0.99,0.58,2,0.82
					l16.75,4.05c4.63,1.14,7.96,2.57,9.98,4.3c2.02,1.74,3.02,4.6,3.02,8.61v11.03c0,8.25-4.14,12.38-12.42,12.38h-22.51
					c-8.28,0-12.42-4.14-12.42-12.42v-8.28h14.76v6.39c0,1.14,0.57,1.71,1.71,1.71h14.22c1.14,0,1.71-0.57,1.71-1.71v-6.57
					c0-0.72-0.18-1.23-0.54-1.53c-0.36-0.3-1.02-0.57-1.98-0.81l-16.75-4.05c-4.62-1.14-7.94-2.58-9.95-4.32
					c-2.01-1.74-3.02-4.62-3.02-8.64v-10.35c0-8.28,4.14-12.42,12.42-12.42h21.25c8.28,0,12.43,4.14,12.43,12.42v7.56H977.83z"/>
				<path class="st1" d="M1089.19,587.06h-16.39v49.97h-14.95v-49.97h-16.48V574h47.81V587.06z"/>
				<path class="st1" d="M1189.58,637.02H1174l-10.53-21.7h-8.73v21.7h-14.95V574h35.11c8.28,0,12.42,4.14,12.42,12.42v15.76
					c0,6.96-2.88,10.98-8.64,12.06L1189.58,637.02z M1154.73,602.9h15.94c0.66,0,1.11-0.12,1.35-0.36c0.24-0.24,0.36-0.69,0.36-1.35
					v-12.78c0-0.66-0.12-1.11-0.36-1.35c-0.24-0.24-0.69-0.36-1.35-0.36h-15.94V602.9z"/>
				<path class="st1" d="M1276.37,637.02h-24.22c-8.28,0-12.43-4.14-12.43-12.42v-38.17c0-8.28,4.14-12.42,12.43-12.42h24.22
					c4.2,0,7.32,1.02,9.36,3.06c2.04,2.04,3.06,5.16,3.06,9.36v38.17C1288.79,632.88,1284.65,637.02,1276.37,637.02z
					 M1254.67,588.68v33.67c0,1.14,0.57,1.71,1.71,1.71h15.76c0.66,0,1.11-0.12,1.35-0.36c0.24-0.24,0.36-0.69,0.36-1.35v-33.67
					c0-0.66-0.12-1.11-0.36-1.35c-0.24-0.24-0.69-0.36-1.35-0.36h-15.76c-0.66,0-1.11,0.12-1.35,0.36
					C1254.79,587.57,1254.67,588.02,1254.67,588.68z"/>
			</g>
			<rect x="1327.53" y="574" class="st1" width="160.46" height="63.02"/>
			<rect x="430" y="574" class="st1" width="160.46" height="63.02"/>
		</g>
		<g>
			<defs>
				<path id="SVGID_1_" d="M1118.13,285.63c-6.58-8.05-14.82-14.49-24.75-19.31c-9.93-4.83-21.46-7.24-34.6-7.24H797.65v65.59
					h227.74c4.03,0,8.11,0.74,12.27,2.21c4.16,1.48,7.98,3.56,11.47,6.24c3.48,2.69,6.37,5.77,8.65,9.25
					c2.28,3.49,3.42,7.24,3.42,11.27s-1.14,7.85-3.42,11.47c-2.28,3.62-5.17,6.71-8.65,9.25c-3.49,2.55-7.31,4.57-11.47,6.04
					c-4.16,1.48-8.25,2.21-12.27,2.21H797.65v131.57h78.86v-65.99h182.27c13.68,0,25.48-2.41,35.41-7.24
					c9.92-4.83,18.17-11.27,24.75-19.31c6.57-8.05,11.53-17.5,14.89-28.37c3.35-10.86,5.43-22.33,6.24-34.4V348.4
					c-0.8-12.07-3.02-23.54-6.64-34.4C1129.8,303.13,1124.7,293.67,1118.13,285.63z M1484.57,369.41
					c-3.62-9.25-8.79-17.5-15.49-24.75c-6.71-7.24-14.82-13.14-24.34-17.7c-9.52-4.56-20.32-6.84-32.39-6.84h-164.17
					c-5.63,0-10.06-1.34-13.28-4.02c-3.22-2.68-4.83-5.9-4.83-9.66c0-4.83,1.61-8.65,4.83-11.47c3.22-2.82,7.64-4.23,13.28-4.23
					h127.55c6.17,0,12.07,0.8,17.71,2.41s8.45,4.3,8.45,8.05h86.11c-1.61-10.72-4.29-20.72-8.05-29.98
					c-3.76-9.25-8.85-17.3-15.29-24.14s-14.35-12.2-23.74-16.09c-9.39-3.89-20.39-5.84-32.99-5.84h-183.08
					c-10.46,0-20.39,2.01-29.77,6.04c-9.39,4.02-17.64,9.66-24.75,16.9c-7.11,7.24-12.74,15.96-16.9,26.15
					c-4.16,10.2-6.24,21.33-6.24,33.4c0,9.66,1.81,19.05,5.43,28.17c3.62,9.12,8.78,17.24,15.49,24.34
					c6.7,7.11,14.89,12.88,24.55,17.3c9.66,4.43,20.38,6.64,32.19,6.64h164.17c5.63,0,10.06,1.55,13.28,4.63
					c3.22,3.09,4.83,6.51,4.83,10.26c0,4.83-1.61,8.65-4.83,11.47c-3.22,2.82-7.64,4.23-13.28,4.23h-127.55
					c-2.96,0-5.97-0.13-9.05-0.4c-3.09-0.26-5.9-0.8-8.45-1.61c-2.55-0.8-4.7-1.87-6.44-3.22c-1.75-1.34-2.62-3.08-2.62-5.23h-85.7
					c1.61,10.73,4.29,20.72,8.05,29.98c3.75,9.25,8.85,17.3,15.29,24.14c6.44,6.84,14.35,12.21,23.74,16.09
					c9.39,3.89,20.38,5.84,32.99,5.84h183.08c10.46,0,20.38-2.01,29.77-6.04c9.39-4.02,17.64-9.66,24.75-16.9
					c7.11-7.24,12.74-15.96,16.9-26.15c4.15-10.19,6.24-21.33,6.24-33.4C1490,388.12,1488.19,378.66,1484.57,369.41z M701.6,393.95
					c-2.15,4.16-5.03,7.78-8.65,10.86c-3.62,3.09-7.64,5.5-12.07,7.24c-4.43,1.75-8.79,2.62-13.08,2.62H545.48
					c-4.57,0-8.99-0.87-13.28-2.62c-4.29-1.74-8.19-4.15-11.67-7.24c-3.49-3.08-6.31-6.7-8.45-10.86
					c-2.15-4.16-3.22-8.65-3.22-13.48H430c0,13.15,1.47,25.75,4.43,37.82c2.95,12.07,7.71,22.67,14.28,31.79
					c6.57,9.12,15.02,16.43,25.35,21.93c10.32,5.5,22.87,8.25,37.62,8.25H702c14.75,0,27.29-2.75,37.62-8.25
					c10.32-5.49,18.77-12.81,25.35-21.93c6.57-9.12,11.33-19.72,14.28-31.79c2.95-12.07,4.43-24.68,4.43-37.82h-78.86
					C704.82,385.3,703.74,389.8,701.6,393.95z M764.97,255.34c-6.58-9.12-15.03-16.43-25.35-21.93c-10.33-5.5-22.87-8.25-37.62-8.25
					H511.68c-14.76,0-27.3,2.75-37.62,8.25c-10.33,5.5-18.78,12.81-25.35,21.93c-6.58,9.12-11.34,19.72-14.28,31.79
					c-2.95,12.07-4.43,24.68-4.43,37.82h78.86c0-4.83,1.07-9.32,3.22-13.48c2.14-4.16,4.96-7.78,8.45-10.86
					c3.48-3.08,7.37-5.5,11.67-7.24c4.29-1.74,8.71-2.62,13.28-2.62H667.8c4.29,0,8.65,0.87,13.08,2.62
					c4.43,1.75,8.45,4.16,12.07,7.24c3.62,3.09,6.5,6.71,8.65,10.86c2.14,4.16,3.22,8.65,3.22,13.48h78.86
					c0-13.14-1.48-25.75-4.43-37.82C776.3,275.05,771.54,264.46,764.97,255.34z"/>
			</defs>
			<clipPath id="SVGID_2_">
				<use xlink:href="#SVGID_1_"  style="overflow:visible;"/>
			</clipPath>
			<ellipse class="st3" cx="946.31" cy="176.54" rx="588.27" ry="235.88"/>
		</g>
	</g>
</g>
</svg>
